<?xml version="1.0" standalone="no"?>
<!DOCTYPE svg PUBLIC "-//W3C//DTD SVG 20010904//EN"
 "http://www.w3.org/TR/2001/REC-SVG-20010904/DTD/svg10.dtd">
<svg version="1.0" xmlns="http://www.w3.org/2000/svg"
 width="19.000000pt" height="20.000000pt" viewBox="0 0 19.000000 20.000000"
 preserveAspectRatio="xMidYMid meet">

<g transform="translate(0.000000,20.000000) scale(0.100000,-0.100000)"
fill="#000000" stroke="none">
<path d="M31 176 c-20 -21 -21 -25 -6 -28 15 -2 18 -15 19 -68 1 -84 21 -85
22 -1 1 51 5 66 18 71 15 5 14 8 -7 28 l-23 22 -23 -24z"/>
<path d="M130 130 c0 -59 -3 -70 -17 -70 -14 0 -12 -4 7 -25 l24 -25 23 22
c23 22 24 22 3 30 -17 6 -20 16 -20 73 0 37 -4 65 -10 65 -6 0 -10 -30 -10
-70z"/>
</g>
</svg>
